HIERARCHY
ROOT joint_Root
{
	OFFSET 0.0 0.0 0.0
	CHANNELS 6 Xposition Yposition Zposition Zrotation Xrotation Yrotation 
	JOINT Hips
	{
		OFFSET -17.1583 93.1646 452.98
		CHANNELS 6 Xposition Yposition Zposition Zrotation Xrotation Yrotation 
		JOINT Spine
		{
			OFFSET 15.7357 0.0 0.0
			CHANNELS 6 Xposition Yposition Zposition Zrotation Xrotation Yrotation 
			JOINT Chest
			{
				OFFSET 8.98455 -0.406207 0.0
				CHANNELS 6 Xposition Yposition Zposition Zrotation Xrotation Yrotation 
				JOINT Neck
				{
					OFFSET 16.3773 0.0 0.0
					CHANNELS 6 Xposition Yposition Zposition Zrotation Xrotation Yrotation 
					JOINT Head
					{
						OFFSET 6.45672 0.0 0.0
						CHANNELS 6 Xposition Yposition Zposition Zrotation Xrotation Yrotation 
						End Site
						{
							OFFSET 0.0 0.0 0.0
						}
					}
				}
				JOINT Shoulder_L
				{
					OFFSET 12.9942 -0.242716 4.98039
					CHANNELS 6 Xposition Yposition Zposition Zrotation Xrotation Yrotation 
					JOINT UpperArm_L
					{
						OFFSET 5.34809 0.0 0.0
						CHANNELS 6 Xposition Yposition Zposition Zrotation Xrotation Yrotation 
						JOINT LowerArm_L
						{
							OFFSET 24.3286 1.87007e-05 0.0
							CHANNELS 6 Xposition Yposition Zposition Zrotation Xrotation Yrotation 
							JOINT Hand_L
							{
								OFFSET 22.2916 0.0 0.0
								CHANNELS 6 Xposition Yposition Zposition Zrotation Xrotation Yrotation 
								End Site
								{
									OFFSET 0.0 0.0 0.0
								}
							}
						}
					}
				}
				JOINT Shoulder_R
				{
					OFFSET 12.9945 -0.242716 -4.98039
					CHANNELS 6 Xposition Yposition Zposition Zrotation Xrotation Yrotation 
					JOINT UpperArm_R
					{
						OFFSET -5.34813 0.0 0.0
						CHANNELS 6 Xposition Yposition Zposition Zrotation Xrotation Yrotation 
						JOINT LowerArm_R
						{
							OFFSET -24.3289 0.000322201 0.0
							CHANNELS 6 Xposition Yposition Zposition Zrotation Xrotation Yrotation 
							JOINT Hand_R
							{
								OFFSET -22.2915 -0.000108084 0.0
								CHANNELS 6 Xposition Yposition Zposition Zrotation Xrotation Yrotation 
								End Site
								{
									OFFSET 0.0 0.0 0.0
								}
							}
						}
					}
				}
			}
		}
		JOINT UpperLeg_L
		{
			OFFSET -2.19248 -6.46944 0.0
			CHANNELS 6 Xposition Yposition Zposition Zrotation Xrotation Yrotation 
			JOINT LowerLeg_L
			{
				OFFSET 39.0811 0.0 -1.23785e-05
				CHANNELS 6 Xposition Yposition Zposition Zrotation Xrotation Yrotation 
				JOINT Foot_L
				{
					OFFSET 40.9854 0.0 -1.26872e-05
					CHANNELS 6 Xposition Yposition Zposition Zrotation Xrotation Yrotation 
					JOINT Toes_L
					{
						OFFSET 11.7543 0.0 0.0
						CHANNELS 6 Xposition Yposition Zposition Zrotation Xrotation Yrotation 
						End Site
						{
							OFFSET 0.0 0.0 0.0
						}
					}
				}
			}
		}
		JOINT UpperLeg_R
		{
			OFFSET -2.19251 6.46944 0.0
			CHANNELS 6 Xposition Yposition Zposition Zrotation Xrotation Yrotation 
			JOINT LowerLeg_R
			{
				OFFSET -39.0811 -0.00228153 -0.0401928
				CHANNELS 6 Xposition Yposition Zposition Zrotation Xrotation Yrotation 
				JOINT Foot_R
				{
					OFFSET -40.9854 0.0 0.0
					CHANNELS 6 Xposition Yposition Zposition Zrotation Xrotation Yrotation 
					JOINT Toes_R
					{
						OFFSET -11.7543 0.0 0.0
						CHANNELS 6 Xposition Yposition Zposition Zrotation Xrotation Yrotation 
						End Site
						{
							OFFSET 0.0 0.0 0.0
						}
					}
				}
			}
		}
	}
}
MOTION
Frames:	5
Frame Time:	0.0333333
0.000000 0.000000 0.000000 0.000000 0.000000 -0.000000 70.880600 92.607700 199.749000 -78.437900 79.349600 172.852000 15.735700 0.000005 -0.000001 66.782300 85.833100 -63.764100 8.984550 -0.406207 -0.000000 -0.006983 -3.489120 6.034090 16.377300 -0.000001 -0.000001 16.982200 16.318800 -6.623120 6.456720 -0.000001 -0.000000 11.490600 27.312300 -5.688500 12.994200 -0.242716 4.980390 -92.562500 6.871100 -69.490000 5.348090 -0.000007 -0.000001 -71.529000 -3.141720 -1.231600 24.328600 0.000019 0.000005 30.927200 20.850300 -59.287500 22.291600 -0.000001 0.000005 51.957100 4.505660 16.505300 12.994500 -0.242716 -4.980390 89.751100 0.649631 -69.034600 -5.348130 -0.000001 -0.000004 -64.198500 3.592000 11.365500 -24.328900 0.000322 -0.000009 1.162740 16.396500 -4.116190 -22.291500 -0.000108 -0.000004 36.329900 5.284000 0.520789 -2.192480 -6.469440 -0.000000 172.552000 6.774730 6.114530 39.081100 -0.000007 -0.000012 0.000669 -0.002208 16.852300 40.985400 -0.000006 -0.000013 5.393010 14.075800 -64.051100 11.754300 -0.000000 0.000003 0.002406 0.098982 -12.562800 -2.192510 6.469440 -0.000001 173.857000 -20.803200 157.099000 -39.081100 -0.002282 -0.040193 -0.007042 0.017866 30.070700 -40.985400 0.000008 0.000006 -2.954120 -20.036400 -67.223400 -11.754300 -0.000006 -0.000006 -0.004845 0.227628 -7.333960
0.000000 0.000000 0.000000 0.000000 0.000000 -0.000000 74.049700 92.256300 199.336000 -77.981400 78.577000 172.150000 15.735700 0.000005 -0.000001 64.873300 85.943800 -61.922500 8.984550 -0.406207 -0.000000 -0.319553 -3.651970 5.889770 16.377300 -0.000001 -0.000001 16.983300 16.335900 -6.372600 6.456720 -0.000001 -0.000000 11.570900 27.391100 -5.811900 12.994200 -0.242716 4.980390 -92.464700 6.617810 -69.519600 5.348090 -0.000007 -0.000001 -71.558000 -6.517740 -2.310490 24.328600 0.000019 0.000005 30.037700 18.610100 -61.105600 22.291600 -0.000001 0.000005 54.149300 4.443560 17.520700 12.994500 -0.242716 -4.980390 89.876500 0.319444 -68.865800 -5.348130 -0.000001 -0.000004 -62.832800 2.007790 12.624500 -24.328900 0.000322 -0.000009 1.180720 15.438900 -4.430980 -22.291500 -0.000108 -0.000004 38.837400 5.311580 -0.251776 -2.192480 -6.469440 -0.000000 172.841000 6.618520 7.106430 39.081100 -0.000007 -0.000012 0.001126 -0.003366 18.506900 40.985400 -0.000006 -0.000013 5.958500 14.862200 -65.068700 11.754300 -0.000000 0.000003 0.002372 0.065732 -13.910800 -2.192510 6.469440 -0.000001 172.602000 -24.199900 158.110000 -39.081100 -0.002282 -0.040193 0.004059 -0.002207 18.416900 -40.985400 0.000008 0.000006 -4.474720 -14.081600 -67.730000 -11.754300 -0.000006 -0.000006 -0.005384 0.232799 -7.123230
0.000000 0.000000 0.000000 0.000000 0.000000 -0.000000 77.543500 91.745000 198.891000 -76.308700 77.738200 170.521000 15.735700 0.000005 -0.000001 63.501300 85.966200 -60.516400 8.984550 -0.406207 -0.000000 -0.438876 -3.812380 5.953950 16.377300 -0.000001 -0.000001 16.992500 16.383100 -6.113480 6.456720 -0.000001 -0.000000 11.641400 27.458600 -5.935340 12.994200 -0.242716 4.980390 -92.461600 6.666550 -69.680300 5.348090 -0.000007 -0.000001 -71.566500 -9.509830 -2.777230 24.328600 0.000019 0.000005 30.167000 17.146900 -63.104900 22.291600 -0.000001 0.000005 56.294100 4.365540 18.768600 12.994500 -0.242716 -4.980390 89.837000 0.417817 -68.686700 -5.348130 -0.000001 -0.000004 -60.989500 -0.065109 13.076000 -24.328900 0.000322 -0.000009 1.178670 14.528100 -4.693030 -22.291500 -0.000108 -0.000004 41.436000 5.328550 -0.743017 -2.192480 -6.469440 -0.000000 173.502000 6.275330 8.152360 39.081100 -0.000007 -0.000012 0.001036 -0.002703 20.979700 40.985400 -0.000006 -0.000013 6.636360 15.848200 -66.414100 11.754300 -0.000000 0.000003 0.001267 0.025103 -15.558500 -2.192510 6.469440 -0.000001 173.853000 -22.613500 159.674000 -39.081100 -0.002282 -0.040193 0.000615 0.015281 10.105900 -40.985400 0.000008 0.000006 -8.319890 -6.566930 -67.518800 -11.754300 -0.000006 -0.000006 -0.005721 0.235944 -6.994990
0.000000 0.000000 0.000000 0.000000 0.000000 -0.000000 81.389700 91.097000 198.307000 -74.131200 76.716200 168.635000 15.735700 0.000005 -0.000001 62.395000 85.944700 -59.280400 8.984550 -0.406207 -0.000000 -0.462174 -3.980840 6.211850 16.377300 -0.000001 -0.000001 17.171000 16.372500 -5.898690 6.456720 -0.000001 -0.000000 11.622100 27.520800 -6.066370 12.994200 -0.242716 4.980390 -92.520700 6.883470 -69.830800 5.348090 -0.000007 -0.000001 -71.444800 -11.445200 -2.715860 24.328600 0.000019 0.000005 29.782600 16.024000 -64.250500 22.291600 -0.000001 0.000005 57.355400 4.322390 19.444800 12.994500 -0.242716 -4.980390 89.675800 0.825286 -68.553700 -5.348130 -0.000001 -0.000004 -59.014300 -2.069050 13.127700 -24.328900 0.000322 -0.000009 1.233030 12.948900 -5.491540 -22.291500 -0.000108 -0.000004 43.249700 5.335940 -0.958971 -2.192480 -6.469440 -0.000000 174.374000 5.635100 9.533600 39.081100 -0.000007 -0.000012 -0.001356 0.003104 23.596700 40.985400 -0.000006 -0.000013 7.837560 16.777900 -67.214100 11.754300 -0.000000 0.000003 -0.003557 -0.046758 -18.478600 -2.192510 6.469440 -0.000001 177.230000 -16.981400 161.134000 -39.081100 -0.002282 -0.040193 -0.004680 0.065420 6.992820 -40.985400 0.000008 0.000006 -13.726900 2.044390 -65.879800 -11.754300 -0.000006 -0.000006 -0.005619 0.235006 -7.033250
0.000000 0.000000 0.000000 0.000000 0.000000 -0.000000 85.634700 90.408100 197.412000 -73.523100 75.705200 168.161000 15.735700 0.000005 -0.000001 60.284900 86.072200 -57.166000 8.984550 -0.406207 -0.000000 -0.823272 -4.126700 6.207620 16.377300 -0.000001 -0.000001 17.405800 16.404100 -5.646810 6.456720 -0.000001 -0.000000 11.763800 27.559600 -5.916080 12.994200 -0.242716 4.980390 -92.475700 6.774270 -69.870100 5.348090 -0.000007 -0.000001 -71.592000 -12.454400 -1.938160 24.328600 0.000019 0.000005 29.558900 15.880500 -64.243300 22.291600 -0.000001 0.000005 57.579300 4.295540 19.860600 12.994500 -0.242716 -4.980390 89.519300 1.204980 -68.251200 -5.348130 -0.000001 -0.000004 -57.629600 -3.495770 12.623400 -24.328900 0.000322 -0.000009 1.231320 11.379400 -6.222480 -22.291500 -0.000108 -0.000004 44.641600 5.343080 -1.170780 -2.192480 -6.469440 -0.000000 174.832000 4.768360 10.762600 39.081100 -0.000007 -0.000012 -0.009119 0.018398 26.365600 40.985400 -0.000006 -0.000013 9.111700 17.326500 -66.298900 11.754300 -0.000000 0.000003 -0.020451 -0.169784 -23.514500 -2.192510 6.469440 -0.000001 179.878000 -13.020000 161.271000 -39.081100 -0.002282 -0.040193 -0.018117 0.130431 9.341840 -40.985400 0.000008 0.000006 -14.883800 8.089950 -65.016800 -11.754300 -0.000006 -0.000006 -0.005718 0.235916 -6.996140
